<mxfile host="app.diagrams.net" modified="2023-11-08T03:55:52.449Z" agent="Mozilla/5.0 (Windows NT 10.0; Win64; x64) AppleWebKit/537.36 (KHTML, like Gecko) Chrome/118.0.0.0 Safari/537.36" version="22.0.8" etag="DOcZmkJbVdyu9s7ti6L7" type="github">
  <diagram name="Page-1" id="v4GwmF9gJjgL3UabN7qz">
    <mxGraphModel>
      <root>
        <mxCell id="0" />
        <mxCell id="1" parent="0" />
      </root>
    </mxGraphModel>
  </diagram>
</mxfile>
